<?xml version="1.0" encoding="UTF-8" standalone="no"?>
<!-- Created with Inkscape (http://www.inkscape.org/) -->

<svg
   xmlns:dc="http://purl.org/dc/elements/1.1/"
   xmlns:cc="http://creativecommons.org/ns#"
   xmlns:rdf="http://www.w3.org/1999/02/22-rdf-syntax-ns#"
   xmlns:svg="http://www.w3.org/2000/svg"
   xmlns="http://www.w3.org/2000/svg"
   xmlns:sodipodi="http://sodipodi.sourceforge.net/DTD/sodipodi-0.dtd"
   xmlns:inkscape="http://www.inkscape.org/namespaces/inkscape"
   width="210mm"
   height="297mm"
   viewBox="0 0 210 297"
   version="1.1"
   id="svg4571"
   sodipodi:docname="Logo GNU VARIO.svg"
   inkscape:version="0.92.3 (2405546, 2018-03-11)">
  <defs
     id="defs4565" />
  <sodipodi:namedview
     id="base"
     pagecolor="#ffffff"
     bordercolor="#666666"
     borderopacity="1.0"
     inkscape:pageopacity="0.0"
     inkscape:pageshadow="2"
     inkscape:zoom="0.35"
     inkscape:cx="-100"
     inkscape:cy="386.64765"
     inkscape:document-units="mm"
     inkscape:current-layer="layer1"
     showgrid="false"
     inkscape:window-width="1680"
     inkscape:window-height="987"
     inkscape:window-x="-8"
     inkscape:window-y="-8"
     inkscape:window-maximized="1" />
  <metadata
     id="metadata4568">
    <rdf:RDF>
      <cc:Work
         rdf:about="">
        <dc:format>image/svg+xml</dc:format>
        <dc:type
           rdf:resource="http://purl.org/dc/dcmitype/StillImage" />
      </cc:Work>
    </rdf:RDF>
  </metadata>
  <g
     inkscape:label="Calque 1"
     inkscape:groupmode="layer"
     id="layer1">
    <path
       style="fill:#000000;stroke-width:0.28222224"
       d="m 19.718941,287.09434 c -0.0854,-0.22252 -0.8238,-2.56078 -1.64091,-5.19613 l -1.48564,-4.79154 1.85876,-0.17613 c 18.08951,-1.71409 55.93315,-4.31897 76.08322,-5.23701 18.668829,-0.85055 51.691129,-1.42401 82.000949,-1.42401 h 20.02238 l -0.006,2.61055 c -0.0102,4.31048 -1.2027,6.08077 -3.86886,5.7436 -6.82486,-0.86308 -58.09403,-1.20687 -76.27606,-0.51147 -28.617269,1.09451 -48.318599,2.59143 -69.708889,5.29651 -9.23359,1.16771 -22.75951,3.20891 -26.18231,3.95118 -0.39901,0.0865 -0.69984,-0.0138 -0.79646,-0.26555 z m 12.02098,-20.79155 c -7.37517,-0.79786 -12.9831,-3.39393 -17.95078,-8.30994 -5.0546896,-5.00211 -6.8746996,-9.19118 -7.7324696,-17.79764 -0.8496,-8.52451 1.81805,-18.11672 7.2986196,-26.24407 9.15118,-13.57061 24.8935,-21.42341 40.41959,-20.16265 6.41692,0.52107 11.75225,1.31167 12.74225,1.88816 2.14145,1.24702 1.96679,2.57507 -0.9817,7.46459 l -1.98163,3.28616 -1.97733,-0.67253 c -9.79778,-3.33244 -21.10359,-1.77474 -30.09065,4.14587 -6.44799,4.24788 -11.89618,11.84073 -14.055,19.58767 -0.71124,2.55232 -0.7861,3.25406 -0.78276,7.33777 0.003,3.49776 0.11946,4.92904 0.51731,6.35 2.02394,7.22866 6.32542,11.15522 14.11864,12.88803 4.44157,0.98758 15.05765,0.27036 19.59301,-1.32369 4.13283,-1.45257 6.83298,-4.48939 6.8239,-7.67472 -0.004,-1.49289 -1.48411,-4.98366 -2.97205,-7.01062 -2.32934,-3.1732 -7.27145,-6.31915 -12.12495,-7.71827 -1.93325,-0.55729 -2.33327,-0.78193 -2.79448,-1.56928 -1.12962,-1.92839 -1.69864,-6.81617 -1.0057,-8.63874 l 0.29049,-0.76404 2.88451,0.15813 c 9.28308,0.50889 18.84678,6.85598 24.23693,16.08518 4.18578,7.16706 3.38286,15.71324 -1.97909,21.06506 -3.15246,3.1465 -9.54731,5.96948 -16.41821,7.24774 -2.8609,0.53224 -12.55916,0.76255 -16.07845,0.38183 z m 89.822089,-1.68709 c -3.12399,-0.63223 -4.8489,-2.32838 -6.99515,-6.87853 -0.81924,-1.73685 -2.3057,-4.42184 -3.30322,-5.96666 -3.16826,-4.90651 -5.99326,-9.94906 -11.929779,-21.29433 -1.66504,-3.18205 -3.87045,-7.30955 -4.9009,-9.17222 l -1.87356,-3.38667 -0.17873,1.69334 c -0.0983,0.93133 -0.57473,3.95642 -1.05872,6.72242 -1.11183,6.35409 -1.43181,11.96572 -1.43883,25.23387 l -0.005,10.22518 -0.77612,0.21704 c -0.89536,0.25039 -2.96534,0.22198 -8.07739,-0.11088 l -3.63239,-0.23652 0.0416,-8.04333 c 0.0443,-8.55513 0.6954,-23.09654 1.18139,-26.38445 0.16087,-1.08839 0.52911,-3.24889 0.8183,-4.80111 0.79403,-4.26187 1.18384,-9.92974 1.24223,-18.06222 0.0637,-8.87606 0.0433,-8.81083 3.3646,-10.72286 1.16718,-0.67193 1.57028,-0.7605 2.85676,-0.62773 0.82381,0.085 1.99896,0.41025 2.61143,0.72271 1.26757,0.64667 3.03302,2.48035 3.3414,3.47057 0.11412,0.36641 0.63411,1.14169 1.15556,1.72285 0.52144,0.58116 2.1574,3.47275 3.63546,6.42575 3.285239,6.56357 5.793789,11.1463 12.897699,23.56204 3.01966,5.27756 6.24209,10.99256 7.16097,12.7 l 1.67068,3.10445 0.20476,-3.24556 c 0.11262,-1.78506 0.13309,-6.03956 0.0455,-9.45444 -0.11653,-4.54256 0.004,-9.16285 0.44792,-17.21556 0.33395,-6.05367 0.61667,-12.65312 0.62825,-14.66546 0.0209,-3.63514 0.0263,-3.66398 0.82633,-4.46405 l 0.80527,-0.80527 2.89543,0.1887 c 1.59249,0.10379 4.09393,0.27111 5.55876,0.37184 l 2.66333,0.18313 -0.0655,1.83444 c -0.036,1.00895 -0.31695,6.72395 -0.62425,12.7 -0.3073,5.97606 -0.67878,16.96156 -0.8255,24.41223 -0.14672,7.45066 -0.33249,14.18166 -0.41282,14.95777 -0.0803,0.77611 -0.28348,3.37961 -0.45145,5.78556 -0.34522,4.94462 -0.75328,6.20336 -2.46964,7.61813 -1.70051,1.4017 -4.78525,2.14099 -7.03429,1.68583 z m 35.71791,-0.8288 c -3.34685,-0.70586 -5.7924,-1.97638 -8.28518,-4.30436 -4.00003,-3.73559 -6.22205,-8.5636 -6.91855,-15.03266 -0.24676,-2.29187 -0.22052,-3.83135 0.13031,-7.64559 0.51923,-5.6452 0.89369,-11.8152 1.29182,-21.28588 0.47424,-11.28121 1.21236,-20.49895 1.67974,-20.97694 0.72551,-0.74201 5.9029,-1.00126 8.92392,-0.44686 2.29902,0.4219 4.35572,1.33582 4.35572,1.93551 0,0.26399 -0.18548,1.7406 -0.41218,3.28135 -0.57144,3.88368 -0.93594,8.46807 -1.27738,16.06582 -0.16044,3.57012 -0.53881,9.66612 -0.84083,13.54667 -0.89312,11.47547 -0.9525,13.53067 -0.46823,16.20716 1.35245,7.47488 6.08226,10.32303 11.98873,7.21926 1.99919,-1.05054 4.50662,-3.33124 5.8613,-5.33129 4.43343,-6.54553 7.71002,-26.47678 7.72367,-46.98255 0.003,-3.74992 0.0395,-4.03627 0.49659,-3.8426 0.27164,0.11509 2.55041,0.24653 5.06393,0.2921 3.81882,0.0692 4.77752,0.17463 5.83231,0.6412 2.40231,1.06266 2.35215,0.69561 1.62068,11.85986 -1.51597,23.13814 -3.38586,33.27867 -7.55337,40.96242 -2.25827,4.16362 -6.37773,8.48723 -10.29041,10.80036 -5.44955,3.22171 -12.60301,4.36982 -18.92259,3.03702 z M -22.023409,235.39375 c -2.33216,-1.29933 -6.38529,-3.01381 -14.67556,-6.20777 -8.13025,-3.13231 -14.03516,-5.88308 -17.5576,-8.17913 -4.65402,-3.03364 -7.9993,-6.89115 -9.40982,-10.85067 -0.35942,-1.00894 -1.11927,-2.53294 -1.68856,-3.38666 -6.95933,-10.43646 -10.49145,-24.28009 -9.32495,-36.54778 1.7371,-18.26837 11.01768,-33.88186 26.29459,-44.23758 4.74572,-3.21697 11.42203,-6.52228 16.2019,-8.02124 1.24177,-0.38942 2.89277,-1.00217 3.66889,-1.36165 4.07849,-1.88914 12.83042,-4.21602 19.3322204,-5.13988 5.56988,-0.79145 21.9915396,-0.70241 29.0688896,0.15761 17.63246,2.14263 35.47268,6.72443 45.99426,11.81245 l 4.36649,2.11154 -0.97982,0.82311 c -0.5389,0.45271 -1.68793,1.26193 -2.55339,1.79826 -7.50618,4.65156 -16.51717,6.16619 -32.2931,5.42803 -9.72444,-0.455 -29.1895796,-0.32859 -32.1733296,0.20895 -3.83395,0.6907 -7.15789,1.54398 -9.4343,2.42186 -4.8895004,1.88559 -9.9278504,5.70747 -13.0381404,9.89017 -0.79912,1.07466 -1.55195,1.95393 -1.67295,1.95393 -0.121,0 -1.25824,0.9767 -2.52721,2.17045 -2.5012,2.35295 -4.10001,4.50366 -5.37755,7.23385 -2.74253,5.86098 -2.79015,13.43763 -0.12567,19.99496 2.97991,7.33359 9.40634,13.05998 16.307,14.53065 4.2066804,0.89652 9.6123204,0.0688 13.98216043,-2.1411 4.22450997,-2.13635 6.62253997,-4.1235 19.10220957,-15.82921 11.23263,-10.536 16.54778,-14.99307 22.88682,-19.19199 11.4506,-7.58477 22.78479,-10.92481 33.71207,-9.93453 6.16966,0.55912 11.99012,2.09504 14.66223,3.86911 0.54327,0.36069 1.43227,0.74469 1.97555,0.85333 0.54328,0.10864 1.62278,0.55218 2.39889,0.98564 3.14687,1.75752 8.445439,2.57391 15.804449,2.43508 5.89255,-0.11116 9.00777,-0.55877 18.91739,-2.71813 15.82746,-3.44891 18.04418,-3.78225 25.10928,-3.77575 4.43655,0.004 5.85859,0.11145 8.23761,0.62197 5.46418,1.17259 9.51492,2.88333 14.21623,6.0039 2.75591,1.82929 5.95912,4.91555 19.59742,18.88198 8.41466,8.6171 11.83286,11.19939 16.60894,12.54724 0.90822,0.25631 2.36872,0.78533 3.24555,1.17561 4.07557,1.81404 18.17576,1.59301 21.22997,-0.33279 1.44992,-0.91424 2.53549,-2.0724 4.2797,-4.56598 1.73753,-2.48398 2.40369,-4.61817 2.73691,-8.76822 1.07614,-13.40344 -6.98556,-25.0546 -22.70122,-32.80885 -15.31586,-7.55698 -33.82069,-9.49048 -50.8844,-5.31671 l -3.52008,0.86101 -2.14887,-0.75694 c -3.20423,-1.12869 -5.80572,-2.58753 -7.08055,-3.97055 -0.98244,-1.06583 -1.1361,-1.40764 -1.1361,-2.52724 0,-1.18682 0.12347,-1.41737 1.48166,-2.76659 3.20664,-3.18545 11.01223,-6.23492 22.46739,-8.77749 17.75408,-3.94066 31.07909,-4.41338 44.80463,-1.58949 29.11266,5.98964 51.72256,25.89861 56.0274,49.33448 0.51255,2.7903 0.60492,4.28447 0.57689,9.33103 -0.0473,8.5142 -0.7419,13.17496 -2.89376,19.41554 -6.68285,19.38103 -22.61365,33.67891 -43.44199,38.98919 -3.99945,1.01968 -4.21363,1.04354 -9.44843,1.05271 l -5.35618,0.009 -1.45605,-2.11667 c -0.80083,-1.16416 -3.45135,-5.41866 -5.89003,-9.45444 -10.65063,-17.62573 -15.74079,-23.82184 -23.94042,-29.14203 -4.5439,-2.94823 -8.07053,-4.36692 -15.71556,-6.32206 -9.39628,-2.40301 -12.78728,-2.65541 -29.91555,-2.22666 -13.07774,0.32736 -16.36953,0.55115 -19.28533,1.31115 -1.74568,0.45502 -2.68494,0.44955 -8.79579,-0.0511 -1.24178,-0.10175 -2.4538,-0.35615 -2.69338,-0.56534 -0.5656,-0.49385 -4.80632,-2.46496 -6.61995,-3.077 -5.91242,-1.99524 -11.607439,-1.67704 -17.356669,0.96977 -2.94263,1.35471 -4.02674,1.46253 -14.39333,1.43151 -4.11339,-0.0123 -9.06639,0.1112 -11.00667,0.27445 -25.13238,2.11466 -46.79332,11.28583 -58.6318196,24.82452 -5.23937997,5.99182 -8.486,12.60897 -9.9304,20.23976 -0.31831,1.68164 -0.91197,4.10527 -1.31924,5.38586 l -0.74048,2.32833 -7.2340304,-0.0328 -7.23403,-0.0328 z"
       id="path5138"
       inkscape:connector-curvature="0" />
    <path
       style="fill:#000000;stroke-width:0.36308348"
       d="m -47.430882,125.23576 c -0.498861,-0.47406 -1.193349,-1.09766 -1.543366,-1.3858 -0.350017,-0.28808 -1.883345,-1.69781 -3.407468,-3.13256 -1.52406,-1.43473 -3.193448,-2.93171 -3.70973,-3.32671 -0.516331,-0.39494 -0.938733,-0.79355 -0.938733,-0.88583 0,-0.0925 -0.591256,-0.65775 -1.313921,-1.25674 -0.722712,-0.59896 -2.314585,-2.02735 -3.537581,-3.17424 -1.222966,-1.14683 -2.640838,-2.45916 -3.150711,-2.91626 -0.509939,-0.4571 -1.336889,-1.19791 -1.837652,-1.64626 -0.500764,-0.44833 -2.162704,-1.98903 -3.693173,-3.42379 -1.530468,-1.43473 -3.2051,-2.93171 -3.72138,-3.3267 -0.51633,-0.39495 -0.93873,-0.805492 -0.93873,-0.912252 0,-0.10664 -0.42881,-0.51734 -0.95245,-0.912295 -0.82094,-0.618968 -2.31358,-1.980404 -7.54152,-6.878694 -0.55381,-0.51888 -1.2876,-1.179187 -1.63069,-1.467338 -0.34332,-0.28808 -1.8895,-1.696336 -3.43645,-3.129282 -1.54699,-1.432982 -3.26756,-2.991248 -3.82343,-3.462917 -0.55592,-0.471632 -1.46385,-1.280122 -2.01762,-1.79666 -0.55381,-0.516538 -2.26291,-2.112963 -3.79803,-3.547722 -1.5351,-1.434725 -3.219703,-2.931756 -3.743533,-3.326706 -0.52384,-0.394938 -0.95244,-0.805489 -0.95244,-0.91224 0,-0.648216 -2.28967,-1.79413 -3.59656,-1.799946 -0.80141,-0.0035 -2.91254,-0.216826 -4.69141,-0.474046 -2.85255,-0.412316 -4.33527,-0.724392 -7.75476,-1.63217 -2.59959,-0.690118 -7.00835,-2.894586 -10.01621,-5.00829 -3.04681,-2.141078 -3.59383,-2.707288 -5.19778,-5.380234 -2.08904,-3.481176 -2.1143,-3.534323 -3.20742,-6.737157 -1.12997,-3.310987 -1.19968,-11.852317 -0.12129,-14.836441 2.25276,-6.232535 2.78736,-7.366581 5.51429,-11.696915 2.25819,-3.586011 8.2041,-10.777693 10.44442,-12.632787 0.34955,-0.28961 1.63311,-1.463288 2.85237,-2.608578 4.10856,-3.8593728 15.80354,-13.0058962 16.6296,-13.0058962 0.19673,0 0.35718,-0.1166778 0.35718,-0.2591871 0,-0.1424976 0.93735,-0.8356176 2.082983,-1.5402876 1.14567,-0.7046702 2.28275,-1.4389158 2.52686,-1.6316637 1.05973,-0.8368067 10.35261,-6.3512254 10.70311,-6.3512254 0.21296,0 0.44791,-0.122082 0.52187,-0.271137 0.19673,-0.395986 6.216,-3.641841 6.75342,-3.641841 0.25118,0 0.45651,-0.129017 0.45651,-0.286538 0,-0.157521 0.54579,-0.468854 1.21287,-0.691684 0.66709,-0.222994 1.21288,-0.534139 1.21288,-0.69173 0,-0.157521 0.16904,-0.286538 0.37533,-0.286538 0.36148,0 5.275535,-2.244687 5.68905,-2.598652 0.8803,-0.753425 20.695978,-8.621085 26.279033,-10.433888 1.22295,-0.397105 2.678395,-0.909521 3.234314,-1.138673 0.555921,-0.229153 2.152428,-0.730467 3.547859,-1.11402 1.395433,-0.383589 2.850879,-0.835806 3.234316,-1.005065 1.24315,-0.548774 12.325703,-3.57645 18.890372,-5.160795 17.6420443,-4.257702 38.173563,-7.71373 47.590547,-8.010899 1.937463,-0.06123 3.756767,-0.263802 4.042948,-0.450404 0.617372,-0.402615 7.692873,-1.150495 18.309042,-1.935191 10.969365,-0.81081 43.890858,-0.815814 55.185886,-0.0083 15.75656,1.126381 29.71696,2.543963 39.21636,3.982184 1.66771,0.252641 4.66957,0.698618 6.67082,0.99136 2.00125,0.292696 4.73024,0.720377 6.06439,0.950307 1.33418,0.229917 3.88121,0.668312 5.66007,0.974135 1.77893,0.305799 4.16002,0.764093 5.29135,1.018322 1.13137,0.254184 2.3707,0.46219 2.75408,0.46219 0.38347,0 1.55,0.205275 2.59237,0.456068 1.0424,0.250721 3.07783,0.702821 4.52317,1.004335 3.36812,0.702633 8.54419,1.869105 13.1395,2.961096 4.44772,1.056904 19.88556,5.212022 21.83179,5.876048 0.66708,0.227611 2.75928,0.875402 4.64937,1.439576 1.89004,0.564138 3.80032,1.153885 4.24507,1.310512 0.44457,0.156744 2.44595,0.826257 4.44719,1.488023 7.68993,2.542846 22.81691,8.508434 23.10373,9.111356 0.21249,0.446095 1.65768,1.002792 2.2665,0.872975 0.53361,-0.113616 3.2,1.172629 3.75482,1.811602 0.29414,0.338907 1.28001,0.796022 2.19052,1.016085 0.91062,0.219898 2.31292,0.759854 3.11635,1.199591 0.80345,0.439702 1.70829,0.799484 2.01079,0.799484 0.30274,0 0.55003,0.123248 0.55003,0.273834 0,0.150585 0.46653,0.445164 1.03673,0.654713 1.37233,0.5042814 7.47228,3.7446027 10.35381,5.4999377 1.26172,0.7685662 2.38332,1.3974015 2.49252,1.3974015 0.10934,0 0.62329,0.2884567 1.14248,0.6408917 0.5192,0.352388 2.94524,1.91986119 5.39125,3.48313112 5.76862,3.68687538 5.71656,3.64901178 13.20797,9.60713598 3.52012,2.799572 6.40017,5.257386 6.40017,5.461767 0,0.204509 0.14465,0.371649 0.32139,0.371649 0.17665,0 0.98158,0.698431 1.78873,1.552074 0.80713,0.853631 1.86439,1.917436 2.34945,2.364025 0.48505,0.44659 1.44332,1.472306 2.12956,2.279337 0.68622,0.807043 1.3947,1.516258 1.5744,1.576021 0.17954,0.05969 0.3266,0.24918 0.3266,0.420794 0,0.365869 1.67974,2.355136 2.12254,2.513882 0.16665,0.05969 0.30321,0.231082 0.30321,0.380515 0,0.14942 0.79583,1.357606 1.76847,2.684495 0.97269,1.326923 1.89458,2.732979 2.0487,3.124656 0.15423,0.391641 0.44983,0.712099 0.65731,0.712099 0.20724,0 0.37722,0.155978 0.37722,0.347007 0,0.190641 0.43073,1.107898 0.95752,2.03794 0.52659,0.930043 1.36076,2.498059 1.85365,3.484404 0.49287,0.986391 1.15361,2.275297 1.4683,2.864244 1.27493,2.386442 0.67902,2.019915 -5.02065,-3.087687 -4.40169,-3.944485 -17.38514,-14.319138 -21.75202,-17.3813 -2.00752,-1.407715 -4.40811,-3.055674 -6.41719,-4.40532 -1.06785,-0.717339 -2.14071,-1.456318 -2.38406,-1.64219 -0.24352,-0.186014 -1.17019,-0.771946 -2.05965,-1.302458 -0.88945,-0.530478 -1.70813,-1.052596 -1.81929,-1.160196 -0.11128,-0.107848 -2.11243,-1.328738 -4.44721,-2.713576 -2.3348,-1.3848514 -4.56552,-2.7282818 -4.95719,-2.9853972 -0.39156,-0.2572679 -0.87685,-0.4675468 -1.07815,-0.4675468 -0.20104,0 -0.42644,-0.1102026 -0.50072,-0.2445522 -0.2044,-0.3712734 -2.67193,-1.7119019 -3.15058,-1.7119019 -0.2316,0 -0.42069,-0.1232351 -0.42069,-0.273822 0,-0.1505857 -0.40923,-0.445553 -0.90966,-0.6556084 -0.50028,-0.2098911 -1.39269,-0.6371127 -1.98308,-0.9490346 -1.74899,-0.9240735 -10.47125,-5.1570856 -12.87465,-6.248158 -3.03048,-1.3757144 -17.96337,-7.2878503 -20.21461,-8.0032339 -1.0006,-0.318115 -2.18316,-0.699384 -2.62792,-0.847662 -0.44455,-0.148279 -1.80919,-0.58605 -3.0322,-0.972829 -1.22295,-0.386826 -2.58743,-0.831767 -3.03217,-0.988782 -1.0365,-0.365869 -12.64588,-3.404954 -15.56523,-4.07462 -1.223,-0.280368 -3.04233,-0.703045 -4.04294,-0.93905 -1.00064,-0.236087 -3.27476,-0.680946 -5.05363,-0.988818 -1.77892,-0.307718 -4.05307,-0.713759 -5.05369,-0.901974 -1.00062,-0.188321 -2.72897,-0.448897 -3.84076,-0.579385 -1.11178,-0.13056 -3.02208,-0.386438 -4.24506,-0.568837 -12.39613,-1.848842 -32.92441,-2.794567 -44.67431,-2.058121 -13.5212,0.84751 -15.23279,0.972605 -18.26716,1.335119 -7.9941,0.955086 -15.26489,1.988726 -18.72558,2.662125 -1.00063,0.19449 -2.68748,0.473669 -3.74857,0.619982 -1.06106,0.146347 -2.51651,0.411621 -3.2343,0.589511 -0.71786,0.177936 -2.48764,0.564833 -3.933025,0.859801 -2.86484,0.58466 -6.159792,1.321178 -8.692283,1.942937 -0.889459,0.218368 -2.708762,0.661802 -4.042933,0.985427 -1.334157,0.323507 -3.699277,0.938979 -5.255767,1.367508 -1.556534,0.428529 -4.103587,1.124227 -5.66012,1.546021 -1.55649,0.421794 -3.284838,0.915832 -3.840756,1.097924 -0.555919,0.182164 -2.011383,0.6460491 -3.234329,1.0310974 -1.222999,0.3851587 -2.58749,0.8243545 -3.032186,0.9762946 -0.444569,0.15174 -3.082768,1.0389972 -5.862253,1.9713124 -2.7795,0.9323624 -6.600053,2.2825041 -8.490144,3.0003019 C 44.262623,-1.088125 36.561041,1.9667836 36.361163,2.1582358 36.249922,2.2649019 34.885515,2.8621759 33.328964,3.4858543 31.772428,4.109522 28.710245,5.466798 26.52411,6.502016 c -2.186085,1.0352653 -4.054489,1.8822798 -4.151998,1.8822798 -0.0975,0 -0.946817,0.4005303 -1.887454,0.8900708 -2.402408,1.2502774 -3.237143,1.6585554 -3.933836,1.9241354 -0.333778,0.127086 -1.788985,0.844589 -3.234315,1.594353 -6.7549547,3.504123 -7.4816317,3.870616 -8.7933627,4.434896 -0.500284,0.215295 -0.909659,0.514501 -0.909659,0.66504 0,0.150586 -0.194812,0.273834 -0.433095,0.273834 -0.238283,0 -0.680407,0.183317 -0.982476,0.407618 -0.30226,0.224148 -1.48319297,0.921142 -2.62459797,1.548824 -3.31090303,1.820773 -7.43961403,4.177181 -7.97040803,4.549054 -0.268363,0.187945 -0.677914,0.342004 -0.909661,0.342004 -0.231586,0 -0.421634,0.110084 -0.422113,0.244552 -4.32e-4,0.13441 -0.8191193,0.661532 -1.8193213,1.171216 -1.000233,0.509639 -1.8186,1.059908 -1.8186,1.222774 0,0.162913 -0.273126,0.296168 -0.60644,0.296168 -0.333779,0 -0.606425,0.115147 -0.606425,0.255726 0,0.140567 -0.500298,0.500208 -1.111789,0.798943 -0.611508,0.298864 -1.657642,0.930972 -2.32472,1.404995 -0.667078,0.474011 -2.349923,1.536732 -3.739665,2.361636 -1.389742,0.82495 -2.526849,1.618311 -2.526849,1.763082 0,0.144805 -0.273125,0.263037 -0.606439,0.263037 -0.33378,0 -0.607719,0.110202 -0.609302,0.244564 0,0.134408 -1.366104,1.123073 -3.032184,2.196767 -1.666127,1.07373 -3.029339,2.064208 -3.029339,2.201006 0,0.136717 -0.257845,0.248792 -0.572765,0.248792 -0.315158,0 -0.633322,0.126709 -0.707481,0.281534 -0.07399,0.154813 -1.681169,1.349788 -3.571257,2.655602 -1.890028,1.305778 -3.837128,2.719815 -4.326864,3.142305 -0.48964,0.422524 -0.998665,0.768177 -1.131081,0.768177 -0.132335,0 -0.641394,0.339684 -1.131082,0.754767 -1.207189,1.023362 -5.319647,4.008499 -7.719801,5.603688 -1.079427,0.717386 -2.307762,1.544291 -2.729748,1.837563 -0.422113,0.293472 -1.398868,0.880252 -2.171,1.304318 -0.772081,0.424067 -1.405022,0.8811 -1.406555,1.015579 0,0.134409 -0.260243,0.244564 -0.575545,0.244564 -0.31516,0 -0.633323,0.120929 -0.707483,0.26843 -0.134572,0.26843 -7.325482,4.29745 -8.440086,4.729063 -0.323758,0.125555 -1.498759,0.666006 -2.61055,1.201181 -1.776103,0.854903 -9.10454,3.81946 -12.53308,5.069936 -0.66707,0.243399 -3.00062,0.934859 -5.18566,1.53678 -3.41239,0.940015 -3.88294,1.154568 -3.33541,1.521025 0.35048,0.234533 0.63737,0.6288 0.63737,0.875849 0,0.246871 0.1528,0.44918 0.33951,0.44918 0.18672,0 0.55249,0.330053 0.81288,0.733669 0.26024,0.403533 0.83348,1.173865 1.27346,1.71189 0.4398,0.538024 1.01309,1.308403 1.27348,1.711902 0.26024,0.403533 0.6262,0.733668 0.81286,0.733668 0.18671,0 0.33952,0.152505 0.33952,0.339295 0,0.386049 1.66226,2.376047 2.12253,2.541032 0.16665,0.05969 0.30322,0.24918 0.30322,0.420794 0,0.171767 0.34333,0.709709 0.76273,1.195635 0.41973,0.485914 3.44853,4.184987 6.73108,8.220166 3.282547,4.03518 6.486974,7.967691 7.120966,8.738873 0.633898,0.771182 1.152612,1.541552 1.152612,1.711892 0,0.17022 0.152792,0.30965 0.339515,0.30965 0.186708,0 0.552484,0.33005 0.812871,0.73367 0.260243,0.40353 0.833487,1.17386 1.273468,1.71189 0.439792,0.53802 1.013084,1.30838 1.273471,1.71188 0.260243,0.40356 0.626209,0.73367 0.812869,0.73367 0.186709,0 0.339518,0.15253 0.339518,0.3393 0,0.38607 1.662259,2.37606 2.122523,2.54105 0.166649,0.0597 0.303221,0.24917 0.303221,0.42079 0,0.17177 0.344758,0.70971 0.766408,1.19562 0.421634,0.48592 3.26989,3.9649 6.329644,7.73107 3.05969,3.76616 5.738948,7.03101 5.953883,7.2552 0.756945,0.78958 -0.12946,0.39671 -1.024879,-0.45431 z m 308.174392,0.53582 c 0,-0.17946 0.1695,-0.3262 0.37723,-0.3262 0.20725,0 0.50483,-0.33006 0.66092,-0.73367 0.15616,-0.40349 0.40206,-0.80704 0.54618,-0.89669 0.21345,-0.13288 2.5243,-3.12131 5.41512,-7.00321 0.26406,-0.35471 1.25336,-1.63075 2.19841,-2.83581 0.94505,-1.20511 1.71821,-2.33338 1.71821,-2.5073 0,-0.17407 0.13937,-0.3651 0.30993,-0.42499 0.17045,-0.0597 1.12553,-1.18288 2.12251,-2.49582 0.9971,-1.31294 2.1285,-2.78028 2.51435,-3.26077 0.38582,-0.48048 0.89394,-1.16704 1.12916,-1.52572 0.51547,-0.78608 1.06614,-1.51391 2.52369,-3.33578 0.60697,-0.758672 1.10358,-1.529001 1.10358,-1.711908 0,-0.182928 0.15997,-0.332746 0.35526,-0.332746 0.19531,0 0.58128,-0.440196 0.85762,-0.978219 0.27647,-0.538028 0.66221,-0.978224 0.8576,-0.978224 0.19531,0 0.35527,-0.162148 0.35527,-0.360489 0,-0.197952 0.50893,-0.968519 1.13089,-1.711892 0.622,-0.743335 1.26077,-1.571664 1.41949,-1.840682 0.15855,-0.268819 0.60496,-0.881748 0.99166,-1.361621 0.77417,-0.960773 5.12062,-6.574327 5.88297,-7.59803 0.26404,-0.354708 1.25337,-1.630757 2.1984,-2.835823 0.94505,-1.205101 1.71823,-2.333367 1.71823,-2.507288 0,-0.174087 0.13986,-0.365105 0.31085,-0.424997 0.17096,-0.05969 1.38302,-1.54528 2.69322,-3.301204 1.3102,-1.755876 2.53472,-3.268577 2.72118,-3.361508 0.18671,-0.09278 0.33904,-0.51284 0.33904,-0.933045 0,-0.529089 -0.34189,-0.8744 -1.11179,-1.122956 -0.6115,-0.197575 -1.65763,-0.653678 -2.32471,-1.013931 -0.66709,-0.360099 -1.53124,-0.743758 -1.92035,-0.852253 -0.38917,-0.108554 -0.70754,-0.320811 -0.70754,-0.471586 0,-0.150975 -0.81868,-0.661225 -1.81931,-1.134199 -1.00063,-0.47294 -1.81931,-0.992715 -1.81931,-1.155005 0,-0.162135 -0.27314,-0.295002 -0.60645,-0.295002 -0.33329,0 -0.60643,-0.121705 -0.60643,-0.270749 0,-0.149043 -0.8312,-0.752271 -1.84721,-1.340664 -1.01595,-0.588486 -2.27079,-1.383732 -2.78852,-1.767203 -0.51776,-0.383588 -1.46031,-1.062686 -2.09464,-1.509358 -1.58071,-1.113018 -6.95846,-4.882652 -8.38211,-5.875555 -0.6404,-0.446625 -1.64102,-1.180022 -2.22358,-1.629697 -0.94362,-0.728359 -4.22197,-3.032774 -7.46315,-5.245989 -0.63152,-0.43119 -1.81408,-1.267185 -2.62794,-1.857779 -0.81383,-0.590559 -2.34391,-1.611188 -3.40012,-2.268022 -1.0562,-0.656799 -1.92041,-1.310782 -1.92041,-1.45328 0,-0.142498 -0.27265,-0.259187 -0.60644,-0.259187 -0.3333,0 -0.60643,-0.116678 -0.60643,-0.259199 0,-0.142498 -0.93736,-0.835606 -2.08299,-1.540276 -1.14563,-0.704669 -2.2827,-1.437609 -2.52684,-1.628826 -0.24402,-0.191406 -1.99023,-1.292604 -3.8803,-2.44756 -1.8901,-1.154956 -3.70939,-2.276606 -4.04294,-2.492548 -1.65406,-1.070739 -9.0695,-5.384979 -11.92659,-6.938818 -1.77892,-0.967365 -3.29502,-1.88089 -3.36913,-2.029933 -0.074,-0.149044 -0.29224,-0.271126 -0.48509,-0.271126 -0.19244,0 -1.13267,-0.418438 -2.08884,-0.929854 -4.1996,-2.2461 -7.57617,-3.961275 -7.79844,-3.961275 -0.25836,0 -0.30849,-0.03084 -2.98851,-1.877653 -0.97417,-0.671043 -3.0437,-1.617464 -4.5989,-2.103178 -1.55526,-0.485725 -3.12335,-1.074824 -3.48463,-1.309099 -0.36101,-0.234155 -1.93039,-0.937401 -3.48693,-1.562456 -1.55654,-0.625068 -2.92102,-1.222362 -3.03219,-1.3273134 -0.11126,-0.105141 -4.29558,-1.8118726 -9.29871,-3.7931578 -9.30031,-3.6829426 -12.86777,-5.035781 -18.79958,-7.12929289 -0.66708,-0.23532181 -2.44142,-0.87597801 -3.94295,-1.42343331 -1.50149,-0.5474671 -2.96607,-0.9953637 -3.25457,-0.9953637 -0.28842,0 -0.69731,-0.1175019 -0.90857,-0.2607412 -0.21104,-0.1436514 -1.47566,-0.5965165 -2.80979,-1.0067253 -1.3342,-0.4102324 -2.78963,-0.8718926 -3.23439,-1.0259401 -0.80937,-0.2803681 -4.01164,-1.2979605 -6.67083,-2.1197793 -0.77823,-0.2407023 -3.05238,-0.8939565 -5.05364,-1.4521259 -2.00124,-0.558087 -4.23607,-1.2274831 -4.96628,-1.4875531 -0.73021,-0.259964 -1.58819,-0.47275 -1.90666,-0.47275 -0.31849,0 -1.17644,-0.201037 -1.9067,-0.446555 -1.64264,-0.552471 -3.77257,-1.153732 -5.37055,-1.516175 -0.6671,-0.151351 -2.94123,-0.710404 -5.05368,-1.242459 -3.65789,-0.921342 -3.78657,-0.984508 -2.70263,-1.326688 0.62596,-0.197575 1.48496,-0.359323 1.9089,-0.359323 0.42404,0 2.09494,-0.212975 3.71337,-0.472857 8.19659,-1.317105 12.887,-1.613697 25.38082,-1.604831 12.43189,0.0082 15.75175,0.211821 26.27897,1.607256 7.56937,1.003288 16.15003,2.543964 21.83179,3.919902 8.89238,2.153405 14.72141,3.7464856 20.82108,5.6903064 0.97279,0.3100261 3.87773,1.3083921 5.96329,2.0495724 0.83388,0.2961685 1.5161,0.6812168 1.5161,0.855374 0,0.1740747 0.68226,0.411551 1.51608,0.5276636 1.99596,0.2780604 8.16683,2.65753313 8.45339,3.25975981 0.12321,0.25957566 0.661,0.47159719 1.19467,0.47159719 1.00965,0 8.55566,3.0434295 14.03642,5.6611787 1.74172,0.8318383 3.31846,1.5124777 3.5039,1.5124777 0.18525,0 0.39774,0.1124396 0.47175,0.2499445 0.074,0.1374942 1.4667,0.9077558 3.09457,1.7119023 1.62787,0.8041464 3.4472,1.7172474 4.04294,2.0291214 0.59569,0.311958 1.35603,0.668007 1.68957,0.791395 0.33331,0.123248 0.69741,0.308496 0.80858,0.41121 0.33999,0.313877 2.78308,1.654164 3.01581,1.654164 0.12038,0 0.53692,0.22376 0.92603,0.496969 0.38917,0.273433 3.7094,2.277147 7.37834,4.453005 3.66897,2.17581 6.76181,4.043149 6.87296,4.149595 0.11115,0.106312 1.11179,0.771369 2.22363,1.477581 1.1118,0.706247 2.31715,1.51329 2.67863,1.793422 0.36148,0.279992 1.90789,1.383497 3.43647,2.451882 3.09632,2.164072 12.74211,9.88867 15.47515,12.392849 0.97145,0.890142 2.67413,2.577578 3.78374,3.749878 1.10958,1.172287 2.17651,2.180319 2.37083,2.240094 0.19435,0.05969 0.35338,0.258799 0.35338,0.442199 0,0.183329 0.54579,0.889305 1.21285,1.568627 0.6671,0.679286 1.21289,1.379458 1.21289,1.555841 0,0.176394 0.23157,0.475634 0.51418,0.664922 0.63543,0.425337 3.97662,5.841198 4.95918,8.038508 1.03125,2.306074 1.03792,6.913127 0.01,8.176072 -1.96395,2.417456 -6.1871,4.063836 -10.42421,4.063836 -2.27271,0 -2.6221,0.24148 -7.18872,4.972615 -0.99538,1.031227 -1.94862,1.874968 -2.11833,1.874968 -0.16951,0 -0.30846,0.219898 -0.30846,0.489104 0,0.268819 -0.13891,0.489118 -0.30849,0.489118 -0.16951,0 -1.39771,1.099466 -2.72895,2.44325 -1.33126,1.343749 -2.55699,2.444252 -2.72372,2.445559 -0.16667,0 -0.30324,0.22223 -0.30324,0.491424 0,0.268818 -0.13904,0.489116 -0.30846,0.489116 -0.16953,0 -1.39773,1.099468 -2.72897,2.443252 -1.33126,1.343748 -2.55698,2.444251 -2.72373,2.445558 -0.16664,0 -0.30322,0.222229 -0.30322,0.491424 0,0.26883 -0.13889,0.489117 -0.30847,0.489117 -0.16951,0 -1.39772,1.099466 -2.72898,2.44325 -1.33125,1.343752 -2.55697,2.444255 -2.72372,2.445574 -0.16664,0 -0.30321,0.222217 -0.30321,0.491424 0,0.268817 -0.13889,0.489106 -0.30849,0.489106 -0.16949,0 -1.3977,1.09947 -2.72896,2.44325 -1.33126,1.343752 -2.55697,2.444252 -2.7237,2.445572 -0.16666,0 -0.30323,0.22222 -0.30323,0.49143 0,0.26881 -0.13889,0.4891 -0.30847,0.4891 -0.16952,0 -1.39772,1.09947 -2.72897,2.44325 -1.33127,1.34375 -2.55697,2.44426 -2.72372,2.44557 -0.16665,0 -0.30323,0.22221 -0.30323,0.49142 0,0.26882 -0.13887,0.48911 -0.30847,0.48911 -0.16953,0 -1.39773,1.09947 -2.72897,2.44324 -1.33125,1.34377 -2.55698,2.44427 -2.72373,2.44558 -0.16665,0 -0.30321,0.22221 -0.30321,0.49142 0,0.26882 -0.13889,0.48911 -0.30849,0.48911 -0.1695,0 -1.39766,1.09947 -2.72896,2.44327 -1.33126,1.34374 -2.55697,2.44424 -2.72372,2.44555 -0.16664,0 -0.30321,0.22221 -0.30321,0.49142 0,0.26882 -0.13665,0.49046 -0.30324,0.49213 -0.16664,0.003 -1.468,1.17556 -2.8916,2.60862 -2.65252,2.67013 -2.86955,2.8425 -2.86955,2.27949 z"
       id="path5151"
       inkscape:connector-curvature="0" />
  </g>
</svg>
